<svg width="491" height="85" viewBox="0 0 491 85" fill="none" xmlns="http://www.w3.org/2000/svg">
<g clip-path="url(#clip0_85_2)">
<path d="M25.36 70.26C19.12 70.26 13.87 68.88 9.61 66.12C5.35 63.3 2.35 59.49 0.61 54.69L11.23 48.48C13.69 54.9 18.52 58.11 25.72 58.11C29.2 58.11 31.75 57.48 33.37 56.22C34.99 54.96 35.8 53.37 35.8 51.45C35.8 49.23 34.81 47.52 32.83 46.32C30.85 45.06 27.31 43.71 22.21 42.27C19.39 41.43 16.99 40.59 15.01 39.75C13.09 38.91 11.14 37.8 9.16 36.42C7.24 34.98 5.77 33.18 4.75 31.02C3.73 28.86 3.22 26.34 3.22 23.46C3.22 17.76 5.23 13.23 9.25 9.87C13.33 6.45 18.22 4.74 23.92 4.74C29.02 4.74 33.49 6 37.33 8.52C41.23 10.98 44.26 14.43 46.42 18.87L35.98 24.9C33.46 19.5 29.44 16.8 23.92 16.8C21.34 16.8 19.3 17.4 17.8 18.6C16.36 19.74 15.64 21.24 15.64 23.1C15.64 25.08 16.45 26.7 18.07 27.96C19.75 29.16 22.93 30.48 27.61 31.92C29.53 32.52 30.97 33 31.93 33.36C32.95 33.66 34.3 34.17 35.98 34.89C37.72 35.55 39.04 36.18 39.94 36.78C40.9 37.38 41.98 38.19 43.18 39.21C44.38 40.23 45.28 41.28 45.88 42.36C46.54 43.44 47.08 44.76 47.5 46.32C47.98 47.82 48.22 49.47 48.22 51.27C48.22 57.09 46.09 61.71 41.83 65.13C37.63 68.55 32.14 70.26 25.36 70.26ZM91.7013 6H104.031V69H91.7013V42.9H68.3013V69H55.8813V6H68.3013V31.02H91.7013V6ZM217.795 69L205.105 47.13H195.655V69H183.235V6H208.435C214.255 6 219.205 8.04 223.285 12.12C227.365 16.2 229.405 21.12 229.405 26.88C229.405 30.78 228.295 34.41 226.075 37.77C223.855 41.07 220.915 43.56 217.255 45.24L231.205 69H217.795ZM195.655 17.61V36.24H208.435C210.775 36.24 212.785 35.34 214.465 33.54C216.145 31.68 216.985 29.46 216.985 26.88C216.985 24.3 216.145 22.11 214.465 20.31C212.785 18.51 210.775 17.61 208.435 17.61H195.655ZM287.748 69H273.438L250.938 39.48V69H238.518V6H250.938V33.81L272.538 6H286.848L263.538 36.6L287.748 69ZM318.909 6C327.549 6 334.749 9.03 340.509 15.09C346.329 21.15 349.239 28.62 349.239 37.5C349.239 46.38 346.329 53.85 340.509 59.91C334.749 65.97 327.549 69 318.909 69H293.889V6H318.909ZM318.909 57.12C324.369 57.12 328.809 55.32 332.229 51.72C335.649 48.06 337.359 43.32 337.359 37.5C337.359 31.68 335.649 26.97 332.229 23.37C328.809 19.71 324.369 17.88 318.909 17.88H306.309V57.12H318.909ZM411.059 60.81C404.699 67.11 396.959 70.26 387.839 70.26C378.719 70.26 370.979 67.11 364.619 60.81C358.319 54.45 355.169 46.68 355.169 37.5C355.169 28.32 358.319 20.58 364.619 14.28C370.979 7.92 378.719 4.74 387.839 4.74C396.959 4.74 404.699 7.92 411.059 14.28C417.419 20.58 420.599 28.32 420.599 37.5C420.599 46.68 417.419 54.45 411.059 60.81ZM373.349 52.35C377.249 56.19 382.079 58.11 387.839 58.11C393.599 58.11 398.429 56.19 402.329 52.35C406.229 48.45 408.179 43.5 408.179 37.5C408.179 31.5 406.229 26.55 402.329 22.65C398.429 18.75 393.599 16.8 387.839 16.8C382.079 16.8 377.249 18.75 373.349 22.65C369.449 26.55 367.499 31.5 367.499 37.5C367.499 43.5 369.449 48.45 373.349 52.35ZM490.979 6V69H478.649V28.14L460.919 57.39H459.479L441.749 28.23V69H429.329V6H442.109L460.199 35.79L478.199 6H490.979Z" fill="#2563EB"/>
<path fill-rule="evenodd" clip-rule="evenodd" d="M145.616 50.4273C139.495 45.6371 125.299 40.4475 117.475 58.0101C117.006 45.2902 131.15 9.0424 138.296 2.43041C139.824 0.839415 143.57 -1.37715 146.332 2.48456C146.608 2.87104 146.998 3.37891 147.483 4.01082L147.483 4.01093C149.193 6.24082 152.089 10.0152 155.374 15.4499C153.804 16.1216 152.414 17.3071 151.57 18.6664C152.136 18.4123 152.695 18.1413 153.253 17.8708C154.184 17.4197 155.111 16.9703 156.063 16.6033C156.5 17.3462 156.943 18.1179 157.39 18.9184C155.479 19.9869 153.815 21.4932 152.761 23.1021L152.759 23.1034L152.761 23.1028L152.761 23.1021C153.405 22.7839 154.047 22.4538 154.689 22.1234L154.689 22.1232C155.852 21.5247 157.016 20.9254 158.201 20.3946C158.629 21.1864 159.059 22.0044 159.49 22.8487C157.328 24.2757 155.44 26.0601 154.062 27.968C154.65 27.6488 155.238 27.3242 155.828 26.9987C157.322 26.1747 158.828 25.3447 160.357 24.5792C166.509 37.1037 172.67 55.0028 174.436 78.9184C156.795 86.9545 152.593 88.2421 140.548 76.6337C150.266 77.1741 166.342 68.7325 152.893 30.6432C140.65 -4.03434 133.592 18.3879 128.052 35.9891C127.506 37.7208 126.976 39.4058 126.457 40.9852C130.92 39.8771 140.999 40.2143 145.616 50.4273Z" fill="#2563EB"/>
</g>
<defs>
<clipPath id="clip0_85_2">
<rect width="491" height="85" fill="white"/>
</clipPath>
</defs>
</svg>
